# xmcd CD database file
#
# Track frame offsets:
#	150
#	24734
#	51160
#	63813
#	81283
#	97054
#	121410
#	143000
#	169874
#
# Disc length: 2533 seconds
#
# Revision: 0
# Processed by: cddbd v1.5.2PL0 Copyright (c) Steve Scherf et al.
# Submitted via: CDex 1.51
#
DISCID=7709e309
DTITLE=Weather Report - Weather Report
DYEAR=1982
DGENRE=Jazz
TTITLE0=Volcano Fore Hire
TTITLE1=Current Affairs
TTITLE2=N.Y.C. - Part One: 41st Parallel 
TTITLE3=Part Two: The Dance 
TTITLE4=Part Three. Crazy About Jazz
TTITLE5=Dara Factor One
TTITLE6=When It Was Now
TTITLE7=Speechless
TTITLE8=Dara Factor Two
EXTD=YEAR: 1982
EXTT0=
EXTT1=
EXTT2=
EXTT3=
EXTT4=
EXTT5=
EXTT6=
EXTT7=
EXTT8=
PLAYORDER=
